<mxfile host="app.diagrams.net" agent="Mozilla/5.0 (X11; Linux x86_64) AppleWebKit/537.36 (KHTML, like Gecko) Chrome/131.0.0.0 Safari/537.36" version="26.0.10">
  <diagram name="Page-1" id="2Xhfbg0P75E8JEZkz0VX">
    <mxGraphModel dx="922" dy="1665" grid="0" gridSize="10" guides="1" tooltips="1" connect="1" arrows="1" fold="1" page="0" pageScale="1" pageWidth="850" pageHeight="1100" math="0" shadow="0">
      <root>
        <mxCell id="0" />
        <mxCell id="1" parent="0" />
        <mxCell id="dLcC0lP0PboGUJb7cWDz-2" value="AWS Account" style="rounded=0;whiteSpace=wrap;html=1;verticalAlign=top;align=left;fillColor=none;" vertex="1" parent="1">
          <mxGeometry x="211" y="-724" width="699" height="445" as="geometry" />
        </mxCell>
        <mxCell id="dLcC0lP0PboGUJb7cWDz-21" value="Region us-east-1" style="rounded=0;whiteSpace=wrap;html=1;align=left;verticalAlign=top;dashed=1;fillColor=none;" vertex="1" parent="1">
          <mxGeometry x="234" y="-684" width="651" height="382" as="geometry" />
        </mxCell>
        <mxCell id="dLcC0lP0PboGUJb7cWDz-58" value="Internet Gateway" style="text;html=1;align=center;verticalAlign=middle;whiteSpace=wrap;rounded=0;" vertex="1" parent="1">
          <mxGeometry x="807" y="-519" width="60" height="30" as="geometry" />
        </mxCell>
        <mxCell id="dLcC0lP0PboGUJb7cWDz-35" value="&lt;font style=&quot;color: rgb(255, 102, 102);&quot;&gt;Auto Scaling Group&lt;/font&gt;" style="rounded=0;whiteSpace=wrap;html=1;dashed=1;dashPattern=8 8;fillColor=none;strokeColor=#FF6666;verticalAlign=top;" vertex="1" parent="1">
          <mxGeometry x="385" y="-617" width="273" height="170" as="geometry" />
        </mxCell>
        <mxCell id="dLcC0lP0PboGUJb7cWDz-22" value="VPC" style="rounded=0;whiteSpace=wrap;html=1;fontColor=default;strokeColor=#00FF55;align=left;verticalAlign=top;fillColor=none;" vertex="1" parent="1">
          <mxGeometry x="250" y="-625" width="545" height="195" as="geometry" />
        </mxCell>
        <mxCell id="dLcC0lP0PboGUJb7cWDz-71" value="&lt;font style=&quot;color: rgb(255, 0, 0);&quot;&gt;Security Group&lt;/font&gt;" style="rounded=0;whiteSpace=wrap;html=1;fillColor=none;strokeColor=#FF0000;verticalAlign=top;" vertex="1" parent="1">
          <mxGeometry x="400" y="-529" width="243" height="61" as="geometry" />
        </mxCell>
        <mxCell id="dLcC0lP0PboGUJb7cWDz-69" value="" style="endArrow=none;html=1;rounded=0;entryX=0.5;entryY=1;entryDx=0;entryDy=0;entryPerimeter=0;" edge="1" parent="1" source="dLcC0lP0PboGUJb7cWDz-65">
          <mxGeometry width="50" height="50" relative="1" as="geometry">
            <mxPoint x="550" y="550" as="sourcePoint" />
            <mxPoint x="39" y="578" as="targetPoint" />
          </mxGeometry>
        </mxCell>
        <mxCell id="dLcC0lP0PboGUJb7cWDz-23" value="AZ us-east-1a" style="rounded=0;whiteSpace=wrap;html=1;dashed=1;align=left;verticalAlign=top;fillColor=none;" vertex="1" parent="1">
          <mxGeometry x="260" y="-591" width="243" height="153" as="geometry" />
        </mxCell>
        <mxCell id="dLcC0lP0PboGUJb7cWDz-82" value="" style="outlineConnect=0;dashed=0;verticalLabelPosition=bottom;verticalAlign=top;align=center;html=1;shape=mxgraph.aws3.route_table;fillColor=#F58536;gradientColor=none;" vertex="1" parent="1">
          <mxGeometry x="304.16" y="-424" width="42.39" height="39" as="geometry" />
        </mxCell>
        <mxCell id="dLcC0lP0PboGUJb7cWDz-95" value="AZ us-east-1b" style="rounded=0;whiteSpace=wrap;html=1;dashed=1;align=left;verticalAlign=top;fillColor=none;" vertex="1" parent="1">
          <mxGeometry x="541" y="-591" width="243" height="153" as="geometry" />
        </mxCell>
        <mxCell id="dLcC0lP0PboGUJb7cWDz-93" value="" style="group" vertex="1" connectable="0" parent="1">
          <mxGeometry x="392" y="-549" width="89" height="90" as="geometry" />
        </mxCell>
        <mxCell id="dLcC0lP0PboGUJb7cWDz-25" value="Private subnet" style="rounded=0;whiteSpace=wrap;html=1;strokeColor=#000000;verticalAlign=top;align=center;fillColor=none;" vertex="1" parent="dLcC0lP0PboGUJb7cWDz-93">
          <mxGeometry width="89" height="90" as="geometry" />
        </mxCell>
        <mxCell id="dLcC0lP0PboGUJb7cWDz-34" value="" style="outlineConnect=0;dashed=0;verticalLabelPosition=bottom;verticalAlign=top;align=center;html=1;shape=mxgraph.aws3.instance;fillColor=#F58534;gradientColor=none;strokeColor=default;shadow=1;" vertex="1" parent="dLcC0lP0PboGUJb7cWDz-93">
          <mxGeometry x="23" y="23" width="31.43" height="33" as="geometry" />
        </mxCell>
        <mxCell id="dLcC0lP0PboGUJb7cWDz-75" value="" style="outlineConnect=0;dashed=0;verticalLabelPosition=bottom;verticalAlign=top;align=center;html=1;shape=mxgraph.aws3.instance;fillColor=#F58534;gradientColor=none;strokeColor=default;shadow=1;" vertex="1" parent="dLcC0lP0PboGUJb7cWDz-93">
          <mxGeometry x="33" y="33" width="31.43" height="33" as="geometry" />
        </mxCell>
        <mxCell id="dLcC0lP0PboGUJb7cWDz-76" value="" style="outlineConnect=0;dashed=0;verticalLabelPosition=bottom;verticalAlign=top;align=center;html=1;shape=mxgraph.aws3.instance;fillColor=#F58534;gradientColor=none;strokeColor=default;shadow=1;" vertex="1" parent="dLcC0lP0PboGUJb7cWDz-93">
          <mxGeometry x="43" y="43" width="31.43" height="33" as="geometry" />
        </mxCell>
        <mxCell id="dLcC0lP0PboGUJb7cWDz-94" value="" style="group" vertex="1" connectable="0" parent="1">
          <mxGeometry x="280.71999999999997" y="-549" width="89.27999999999997" height="90" as="geometry" />
        </mxCell>
        <mxCell id="dLcC0lP0PboGUJb7cWDz-24" value="Public subnet" style="rounded=0;whiteSpace=wrap;html=1;strokeColor=#00FF55;verticalAlign=top;align=center;fillColor=none;" vertex="1" parent="dLcC0lP0PboGUJb7cWDz-94">
          <mxGeometry width="89.28" height="90" as="geometry" />
        </mxCell>
        <mxCell id="dLcC0lP0PboGUJb7cWDz-27" value="" style="outlineConnect=0;dashed=0;verticalLabelPosition=bottom;verticalAlign=top;align=center;html=1;shape=mxgraph.aws3.vpc_nat_gateway;fillColor=#F58534;gradientColor=none;" vertex="1" parent="dLcC0lP0PboGUJb7cWDz-94">
          <mxGeometry x="22.999999999999943" y="23" width="43.29" height="44" as="geometry" />
        </mxCell>
        <mxCell id="dLcC0lP0PboGUJb7cWDz-96" value="" style="group" vertex="1" connectable="0" parent="1">
          <mxGeometry x="560" y="-549" width="89" height="90" as="geometry" />
        </mxCell>
        <mxCell id="dLcC0lP0PboGUJb7cWDz-97" value="Private subnet" style="rounded=0;whiteSpace=wrap;html=1;strokeColor=#000000;verticalAlign=top;align=center;fillColor=none;" vertex="1" parent="dLcC0lP0PboGUJb7cWDz-96">
          <mxGeometry x="1.86" width="89" height="90" as="geometry" />
        </mxCell>
        <mxCell id="dLcC0lP0PboGUJb7cWDz-98" value="" style="outlineConnect=0;dashed=0;verticalLabelPosition=bottom;verticalAlign=top;align=center;html=1;shape=mxgraph.aws3.instance;fillColor=#F58534;gradientColor=none;strokeColor=default;shadow=1;" vertex="1" parent="dLcC0lP0PboGUJb7cWDz-96">
          <mxGeometry x="23" y="23" width="31.43" height="33" as="geometry" />
        </mxCell>
        <mxCell id="dLcC0lP0PboGUJb7cWDz-99" value="" style="outlineConnect=0;dashed=0;verticalLabelPosition=bottom;verticalAlign=top;align=center;html=1;shape=mxgraph.aws3.instance;fillColor=#F58534;gradientColor=none;strokeColor=default;shadow=1;" vertex="1" parent="dLcC0lP0PboGUJb7cWDz-96">
          <mxGeometry x="33" y="33" width="31.43" height="33" as="geometry" />
        </mxCell>
        <mxCell id="dLcC0lP0PboGUJb7cWDz-100" value="" style="outlineConnect=0;dashed=0;verticalLabelPosition=bottom;verticalAlign=top;align=center;html=1;shape=mxgraph.aws3.instance;fillColor=#F58534;gradientColor=none;strokeColor=default;shadow=1;" vertex="1" parent="dLcC0lP0PboGUJb7cWDz-96">
          <mxGeometry x="43" y="43" width="31.43" height="33" as="geometry" />
        </mxCell>
        <mxCell id="dLcC0lP0PboGUJb7cWDz-101" value="" style="group" vertex="1" connectable="0" parent="1">
          <mxGeometry x="672.86" y="-549" width="89.27999999999997" height="90" as="geometry" />
        </mxCell>
        <mxCell id="dLcC0lP0PboGUJb7cWDz-102" value="Public subnet" style="rounded=0;whiteSpace=wrap;html=1;strokeColor=#00FF55;verticalAlign=top;align=center;fillColor=none;" vertex="1" parent="dLcC0lP0PboGUJb7cWDz-101">
          <mxGeometry width="89.28" height="90" as="geometry" />
        </mxCell>
        <mxCell id="dLcC0lP0PboGUJb7cWDz-103" value="" style="outlineConnect=0;dashed=0;verticalLabelPosition=bottom;verticalAlign=top;align=center;html=1;shape=mxgraph.aws3.vpc_nat_gateway;fillColor=#F58534;gradientColor=none;" vertex="1" parent="dLcC0lP0PboGUJb7cWDz-101">
          <mxGeometry x="22.999999999999943" y="23" width="43.29" height="44" as="geometry" />
        </mxCell>
        <mxCell id="dLcC0lP0PboGUJb7cWDz-108" value="" style="endArrow=classic;html=1;rounded=0;exitX=0.5;exitY=0;exitDx=0;exitDy=0;exitPerimeter=0;entryX=0.5;entryY=1;entryDx=0;entryDy=0;" edge="1" parent="1" source="dLcC0lP0PboGUJb7cWDz-82" target="dLcC0lP0PboGUJb7cWDz-24">
          <mxGeometry width="50" height="50" relative="1" as="geometry">
            <mxPoint x="421" y="-518" as="sourcePoint" />
            <mxPoint x="471" y="-568" as="targetPoint" />
          </mxGeometry>
        </mxCell>
        <mxCell id="dLcC0lP0PboGUJb7cWDz-110" value="" style="edgeStyle=orthogonalEdgeStyle;rounded=0;orthogonalLoop=1;jettySize=auto;html=1;entryX=0.5;entryY=1;entryDx=0;entryDy=0;" edge="1" parent="1" source="dLcC0lP0PboGUJb7cWDz-109" target="dLcC0lP0PboGUJb7cWDz-25">
          <mxGeometry relative="1" as="geometry" />
        </mxCell>
        <mxCell id="dLcC0lP0PboGUJb7cWDz-109" value="" style="outlineConnect=0;dashed=0;verticalLabelPosition=bottom;verticalAlign=top;align=center;html=1;shape=mxgraph.aws3.route_table;fillColor=#F58536;gradientColor=none;" vertex="1" parent="1">
          <mxGeometry x="415.3" y="-424" width="42.39" height="39" as="geometry" />
        </mxCell>
        <mxCell id="dLcC0lP0PboGUJb7cWDz-116" value="" style="edgeStyle=orthogonalEdgeStyle;rounded=0;orthogonalLoop=1;jettySize=auto;html=1;entryX=0.5;entryY=1;entryDx=0;entryDy=0;" edge="1" parent="1" source="dLcC0lP0PboGUJb7cWDz-111" target="dLcC0lP0PboGUJb7cWDz-97">
          <mxGeometry relative="1" as="geometry" />
        </mxCell>
        <mxCell id="dLcC0lP0PboGUJb7cWDz-111" value="" style="outlineConnect=0;dashed=0;verticalLabelPosition=bottom;verticalAlign=top;align=center;html=1;shape=mxgraph.aws3.route_table;fillColor=#F58536;gradientColor=none;" vertex="1" parent="1">
          <mxGeometry x="585.1600000000001" y="-424" width="42.39" height="39" as="geometry" />
        </mxCell>
        <mxCell id="dLcC0lP0PboGUJb7cWDz-117" value="" style="edgeStyle=orthogonalEdgeStyle;rounded=0;orthogonalLoop=1;jettySize=auto;html=1;entryX=0.5;entryY=1;entryDx=0;entryDy=0;" edge="1" parent="1" source="dLcC0lP0PboGUJb7cWDz-112" target="dLcC0lP0PboGUJb7cWDz-102">
          <mxGeometry relative="1" as="geometry" />
        </mxCell>
        <mxCell id="dLcC0lP0PboGUJb7cWDz-112" value="" style="outlineConnect=0;dashed=0;verticalLabelPosition=bottom;verticalAlign=top;align=center;html=1;shape=mxgraph.aws3.route_table;fillColor=#F58536;gradientColor=none;" vertex="1" parent="1">
          <mxGeometry x="696.3" y="-424" width="42.39" height="39" as="geometry" />
        </mxCell>
        <mxCell id="dLcC0lP0PboGUJb7cWDz-120" value="&lt;font style=&quot;color: rgb(255, 0, 0);&quot;&gt;Security Group&lt;/font&gt;" style="rounded=0;whiteSpace=wrap;html=1;fillColor=none;strokeColor=#FF0000;verticalAlign=top;" vertex="1" parent="1">
          <mxGeometry x="461.49" y="-390" width="120" height="79" as="geometry" />
        </mxCell>
        <mxCell id="dLcC0lP0PboGUJb7cWDz-36" value="" style="outlineConnect=0;dashed=0;verticalLabelPosition=bottom;verticalAlign=top;align=center;html=1;shape=mxgraph.aws3.auto_scaling;fillColor=#FF6666;gradientColor=none;" vertex="1" parent="1">
          <mxGeometry x="505.7827027027027" y="-591" width="33.43459459459459" height="29.5" as="geometry" />
        </mxCell>
        <mxCell id="dLcC0lP0PboGUJb7cWDz-60" value="" style="outlineConnect=0;dashed=0;verticalLabelPosition=bottom;verticalAlign=top;align=center;html=1;shape=mxgraph.aws3.classic_load_balancer;fillColor=#F58534;gradientColor=none;" vertex="1" parent="1">
          <mxGeometry x="499.93" y="-362" width="43.13" height="45" as="geometry" />
        </mxCell>
        <mxCell id="dLcC0lP0PboGUJb7cWDz-121" value="" style="endArrow=classic;html=1;rounded=0;exitX=0.5;exitY=0;exitDx=0;exitDy=0;exitPerimeter=0;" edge="1" parent="1" source="dLcC0lP0PboGUJb7cWDz-60">
          <mxGeometry width="50" height="50" relative="1" as="geometry">
            <mxPoint x="501" y="-431" as="sourcePoint" />
            <mxPoint x="468" y="-500" as="targetPoint" />
            <Array as="points">
              <mxPoint x="521" y="-489" />
              <mxPoint x="521" y="-499" />
            </Array>
          </mxGeometry>
        </mxCell>
        <mxCell id="dLcC0lP0PboGUJb7cWDz-122" value="" style="endArrow=classic;html=1;rounded=0;exitX=0.5;exitY=0;exitDx=0;exitDy=0;exitPerimeter=0;" edge="1" parent="1" source="dLcC0lP0PboGUJb7cWDz-60">
          <mxGeometry width="50" height="50" relative="1" as="geometry">
            <mxPoint x="501" y="-431" as="sourcePoint" />
            <mxPoint x="574" y="-499" as="targetPoint" />
            <Array as="points">
              <mxPoint x="521" y="-499" />
            </Array>
          </mxGeometry>
        </mxCell>
        <mxCell id="dLcC0lP0PboGUJb7cWDz-37" value="" style="outlineConnect=0;dashed=0;verticalLabelPosition=bottom;verticalAlign=top;align=center;html=1;shape=mxgraph.aws3.internet_gateway;fillColor=#F58534;gradientColor=none;" vertex="1" parent="1">
          <mxGeometry x="867" y="-535" width="59.42" height="62" as="geometry" />
        </mxCell>
        <mxCell id="dLcC0lP0PboGUJb7cWDz-124" value="" style="sketch=0;outlineConnect=0;fontColor=#232F3E;gradientColor=none;fillColor=#DD344C;strokeColor=none;dashed=0;verticalLabelPosition=bottom;verticalAlign=top;align=center;html=1;fontSize=12;fontStyle=0;aspect=fixed;pointerEvents=1;shape=mxgraph.aws4.role;" vertex="1" parent="1">
          <mxGeometry x="496.66999999999996" y="-670" width="49.64" height="28" as="geometry" />
        </mxCell>
        <mxCell id="dLcC0lP0PboGUJb7cWDz-125" value="" style="endArrow=classic;html=1;rounded=0;exitX=0.5;exitY=0;exitDx=0;exitDy=0;" edge="1" parent="1" source="dLcC0lP0PboGUJb7cWDz-35" target="dLcC0lP0PboGUJb7cWDz-124">
          <mxGeometry width="50" height="50" relative="1" as="geometry">
            <mxPoint x="392" y="-489" as="sourcePoint" />
            <mxPoint x="442" y="-539" as="targetPoint" />
          </mxGeometry>
        </mxCell>
        <mxCell id="dLcC0lP0PboGUJb7cWDz-126" value="" style="endArrow=classic;html=1;rounded=0;entryX=1;entryY=0.5;entryDx=0;entryDy=0;entryPerimeter=0;exitX=0.07;exitY=0.475;exitDx=0;exitDy=0;exitPerimeter=0;" edge="1" parent="1" source="dLcC0lP0PboGUJb7cWDz-124">
          <mxGeometry width="50" height="50" relative="1" as="geometry">
            <mxPoint x="496" y="-657" as="sourcePoint" />
            <mxPoint x="433" y="-656" as="targetPoint" />
          </mxGeometry>
        </mxCell>
        <mxCell id="dLcC0lP0PboGUJb7cWDz-127" value="" style="sketch=0;outlineConnect=0;fontColor=#232F3E;gradientColor=none;fillColor=#7AA116;strokeColor=none;dashed=0;verticalLabelPosition=bottom;verticalAlign=top;align=center;html=1;fontSize=12;fontStyle=0;aspect=fixed;pointerEvents=1;shape=mxgraph.aws4.bucket;" vertex="1" parent="1">
          <mxGeometry x="388" y="-678" width="42.3" height="44" as="geometry" />
        </mxCell>
      </root>
    </mxGraphModel>
  </diagram>
</mxfile>
